<svg xmlns="http://www.w3.org/2000/svg" width="512" height="512" viewBox="0 0 341.59 341.59"><path fill="#3B8070" d="M311.05 164.76a27.34 27.34 0 00-22.43 11.72l-20.17-3.5c.02-.75.05-1.5.05-2.27 0-8.96-1.77-17.5-4.97-25.32l34.16-20.61a27.2 27.2 0 0016.54 5.58A27.4 27.4 0 00341.6 103a27.4 27.4 0 00-27.36-27.36 27.39 27.39 0 00-26.95 32.06l-33.99 20.51a67.12 67.12 0 00-41.9-23.87V62.37A31.65 31.65 0 00233 32.4 31.64 31.64 0 00201.4.8a31.64 31.64 0 00-31.6 31.6 31.65 31.65 0 0021.6 29.97v41.97a67.3 67.3 0 00-51.22 38.94l-62.6-19.23A38.98 38.98 0 0038.94 80.4 38.98 38.98 0 000 119.34a38.98 38.98 0 0038.94 38.93 38.9 38.9 0 0031.14-15.6l64.72 19.88a66.86 66.86 0 0018.2 54.57l-28.2 30.01a32.93 32.93 0 00-13.46-2.86A33.18 33.18 0 0078.2 277.4a33.18 33.18 0 0033.15 33.15 33.18 33.18 0 0033.15-33.15c0-6.21-1.72-12.03-4.71-17l29.13-31a66.68 66.68 0 0032.48 8.4c11.26 0 21.87-2.8 31.2-7.71l29.06 44.2a38.81 38.81 0 00-11.47 27.56c0 21.47 17.46 38.93 38.93 38.93s38.93-17.46 38.93-38.93A38.98 38.98 0 00279 264.27l-30.28-46.03a67.23 67.23 0 0016.08-25.59l19.17 3.32a27.4 27.4 0 0027.08 23.5 27.4 27.4 0 0027.36-27.36 27.4 27.4 0 00-27.36-27.35zm-156.77 5.95a47.16 47.16 0 0147.11-47.11 47.16 47.16 0 0147.11 47.1 47.16 47.16 0 01-47.1 47.12 47.16 47.16 0 01-47.12-47.11z" class="active-path" data-old_color="#000000" data-original="#000000"/></svg>